<?xml version="1.0" standalone="no"?>
<!DOCTYPE svg PUBLIC "-//W3C//DTD SVG 20010904//EN"
 "http://www.w3.org/TR/2001/REC-SVG-20010904/DTD/svg10.dtd">
<svg version="1.0" xmlns="http://www.w3.org/2000/svg"
 width="1200.000000pt" height="512.000000pt" viewBox="0 0 1200.000000 512.000000"
 preserveAspectRatio="xMidYMid meet">

<g transform="translate(0.000000,512.000000) scale(0.100000,-0.100000)"
fill="#000000" stroke="none">
<path d="M1940 4346 c-73 -25 -101 -39 -145 -71 -16 -12 -58 -32 -93 -45 -59
-21 -168 -82 -215 -118 -110 -87 -217 -224 -272 -347 -53 -117 -88 -284 -84
-394 2 -58 0 -66 -17 -69 -32 -5 -97 -55 -127 -98 -41 -59 -56 -156 -36 -235
9 -32 15 -59 13 -59 -1 0 -41 19 -89 41 -51 25 -90 38 -95 33 -19 -20 -260
-548 -253 -555 4 -3 139 -68 298 -142 401 -187 425 -198 425 -203 0 -2 -21
-15 -47 -31 -77 -44 -101 -63 -193 -154 -92 -93 -111 -104 -353 -214 -70 -32
-130 -61 -132 -65 -3 -4 51 -128 120 -275 l125 -267 0 -84 0 -84 1349 0 1349
0 4 97 4 98 117 249 c65 137 116 255 113 261 -2 6 -88 51 -192 100 l-187 88
-96 97 c-66 66 -121 111 -174 142 l-78 45 83 38 c512 236 648 302 648 313 0
10 -246 542 -255 550 -3 3 -41 -11 -86 -31 -44 -21 -85 -37 -90 -37 -5 0 -4
11 1 26 17 44 12 178 -9 226 -21 50 -90 116 -129 124 -27 6 -27 6 -28 97 -2
200 -62 384 -176 537 -54 73 -172 189 -201 199 -7 2 -19 10 -28 18 -61 52
-218 111 -349 129 -63 10 -124 23 -134 30 -13 9 -25 10 -37 3 -14 -7 -28 -2
-64 26 -56 42 -90 44 -185 11z m-135 -897 c195 -43 324 -70 400 -84 44 -8 100
-20 125 -25 25 -6 83 -17 130 -24 47 -8 110 -20 140 -26 30 -7 109 -17 174
-24 l119 -11 19 -80 c15 -61 18 -102 15 -175 -6 -107 -39 -246 -65 -272 -9
-10 -180 -94 -380 -188 l-362 -170 -98 44 c-53 25 -220 103 -371 174 l-275
128 -24 70 c-32 90 -44 197 -36 307 l6 88 72 56 c93 73 181 158 217 209 28 41
30 42 66 33 21 -6 79 -19 128 -30z m-640 -407 c0 -62 -4 -112 -8 -112 -4 0
-19 11 -32 25 -22 21 -25 33 -25 91 0 56 4 72 22 91 12 13 27 22 32 20 7 -2
11 -46 11 -115z m1959 86 c11 -15 16 -45 16 -86 0 -55 -3 -66 -27 -90 l-28
-27 -5 105 c-3 58 -4 108 -2 113 6 14 31 7 46 -15z"/>
<path d="M1574 3205 c-180 -40 -272 -140 -230 -250 22 -57 58 -88 145 -125
137 -58 290 -49 426 25 33 18 91 49 128 70 l68 37 92 -57 c204 -128 366 -147
534 -64 89 43 118 84 118 166 0 63 -1 64 -45 106 -46 43 -70 57 -150 85 -63
22 -991 28 -1086 7z m238 -135 c12 -7 35 -24 51 -38 l27 -26 -32 -33 c-25 -26
-47 -36 -106 -49 -65 -15 -84 -15 -146 -4 -92 17 -146 50 -146 87 0 22 62 64
110 74 49 11 213 3 242 -11z m818 9 c48 -11 110 -52 110 -73 0 -32 -56 -66
-136 -83 -77 -16 -85 -16 -158 1 -80 19 -141 60 -131 88 7 18 58 49 105 65 44
14 151 16 210 2z"/>
<path d="M4241 4134 c-80 -21 -144 -60 -205 -124 -61 -64 -90 -114 -111 -197
-22 -84 -22 -683 0 -768 42 -158 162 -278 320 -320 82 -21 358 -21 440 0 168
44 308 202 322 365 l6 60 -167 0 c-162 0 -166 -1 -166 -21 0 -12 -15 -36 -34
-55 l-34 -34 -141 0 c-158 0 -190 9 -216 60 -22 43 -22 617 0 660 26 51 58 60
216 60 l141 0 34 -34 c19 -19 34 -43 34 -55 0 -20 4 -21 166 -21 l167 0 -6 60
c-14 163 -154 321 -322 365 -79 20 -367 20 -444 -1z"/>
<path d="M5421 4134 c-80 -21 -144 -60 -205 -124 -61 -64 -90 -114 -111 -197
-22 -84 -22 -683 0 -768 42 -158 162 -278 320 -320 69 -18 353 -21 424 -4 127
29 242 122 302 244 l34 70 0 395 0 395 -34 70 c-60 122 -175 215 -302 244 -68
16 -364 12 -428 -5z m405 -348 l34 -34 0 -322 0 -322 -34 -34 -34 -34 -141 0
c-158 0 -190 9 -216 60 -12 24 -15 81 -15 330 0 403 -8 389 229 390 l143 0 34
-34z"/>
<path d="M6601 4134 c-30 -8 -76 -26 -102 -41 -59 -31 -148 -123 -178 -181
-49 -96 -51 -121 -51 -679 l0 -523 165 0 165 0 0 510 c0 561 -1 554 60 585 22
11 64 15 171 15 l141 0 34 -34 34 -34 0 -521 0 -521 165 0 166 0 -3 558 -3
557 -34 70 c-60 122 -175 215 -302 244 -68 16 -364 12 -428 -5z"/>
<path d="M7450 3985 l0 -165 165 0 165 0 0 -555 0 -555 165 0 165 0 0 555 0
555 170 0 170 0 0 165 0 165 -500 0 -500 0 0 -165z"/>
<path d="M8530 3430 l0 -720 165 0 165 0 0 275 0 275 186 0 186 0 34 -34 34
-34 0 -241 0 -241 166 0 165 0 -3 278 -3 279 -41 81 -40 82 40 82 c41 81 41
82 41 197 0 112 -1 119 -34 186 -60 122 -175 215 -302 244 -25 6 -197 11 -401
11 l-358 0 0 -720z m736 356 c29 -29 34 -41 34 -81 0 -40 -5 -52 -34 -81 l-34
-34 -186 0 -186 0 0 115 0 115 186 0 186 0 34 -34z"/>
<path d="M10041 4134 c-80 -21 -144 -60 -205 -124 -61 -64 -90 -114 -111 -197
-22 -84 -22 -683 0 -768 42 -158 162 -278 320 -320 69 -18 353 -21 424 -4 127
29 242 122 302 244 l34 70 0 395 0 395 -34 70 c-60 122 -175 215 -302 244 -68
16 -364 12 -428 -5z m405 -348 l34 -34 0 -322 0 -322 -34 -34 -34 -34 -141 0
c-158 0 -190 9 -216 60 -12 24 -15 81 -15 330 0 403 -8 389 229 390 l143 0 34
-34z"/>
<path d="M10890 3627 c0 -567 2 -587 56 -688 34 -61 112 -139 173 -172 85 -47
148 -57 353 -57 l188 0 0 165 0 165 -175 0 c-198 0 -221 6 -249 64 -14 30 -16
92 -16 540 l0 506 -165 0 -165 0 0 -523z"/>
<path d="M4163 2046 c-95 -31 -180 -101 -221 -183 -35 -68 -42 -136 -42 -383
0 -247 7 -315 42 -384 33 -64 103 -131 171 -162 61 -28 65 -29 237 -29 l175 0
67 33 c81 40 148 110 180 190 22 55 23 67 23 352 0 285 -1 297 -23 352 -32 80
-99 150 -180 190 -66 33 -68 33 -227 35 -113 2 -172 -1 -202 -11z m338 -285
l29 -29 0 -252 0 -252 -29 -29 c-29 -29 -30 -29 -151 -29 -121 0 -122 0 -151
29 l-29 29 0 252 0 252 29 29 c29 29 30 29 151 29 121 0 122 0 151 -29z"/>
<path d="M5123 2045 c-94 -29 -180 -100 -221 -182 -38 -74 -42 -131 -42 -553
l0 -410 135 0 135 0 0 225 0 225 315 0 315 0 0 135 0 135 -315 0 -315 0 0 56
c0 48 4 59 29 85 l29 29 286 0 286 0 0 135 0 135 -297 -1 c-217 0 -309 -4
-340 -14z"/>
<path d="M6413 2045 c-130 -40 -224 -142 -252 -273 -16 -77 -14 -522 3 -593
25 -110 98 -197 205 -248 l56 -26 313 -3 312 -3 0 135 0 136 -286 0 -286 0
-29 29 c-26 26 -29 36 -29 90 l0 61 315 0 315 0 0 135 0 135 -315 0 -315 0 0
56 c0 48 4 59 29 85 l29 29 286 0 286 0 0 135 0 135 -297 -1 c-217 0 -309 -4
-340 -14z"/>
<path d="M7266 1488 c85 -315 154 -576 154 -580 0 -5 62 -8 138 -8 l138 0 152
568 c84 313 152 574 152 580 0 9 -39 12 -130 12 l-129 0 -14 -47 c-8 -27 -47
-173 -88 -325 -41 -153 -76 -278 -79 -278 -3 0 -38 125 -79 278 -41 152 -80
298 -88 325 l-14 47 -133 0 -133 0 153 -572z"/>
<path d="M8263 2045 c-130 -40 -224 -142 -252 -273 -16 -77 -14 -522 3 -593
25 -110 98 -197 205 -248 l56 -26 313 -3 312 -3 0 135 0 136 -286 0 -286 0
-29 29 c-26 26 -29 36 -29 90 l0 61 315 0 315 0 0 135 0 135 -315 0 -315 0 0
56 c0 48 4 59 29 85 l29 29 286 0 286 0 0 135 0 135 -297 -1 c-217 0 -309 -4
-340 -14z"/>
<path d="M9223 2046 c-95 -31 -180 -101 -221 -183 -38 -74 -42 -131 -42 -553
l0 -410 135 0 135 0 0 416 0 416 29 29 c29 29 30 29 151 29 121 0 122 0 151
-29 l29 -29 0 -416 0 -416 136 0 135 0 -3 438 c-3 429 -4 438 -26 494 -32 80
-99 150 -180 190 -66 33 -68 33 -227 35 -113 2 -172 -1 -202 -11z"/>
<path d="M9920 1925 l0 -135 135 0 135 0 0 -445 0 -445 135 0 135 0 0 445 0
445 135 0 135 0 0 135 0 135 -405 0 -405 0 0 -135z"/>
<path d="M11055 2046 c-100 -32 -180 -98 -225 -185 -88 -174 -8 -394 173 -477
57 -26 74 -29 215 -34 153 -5 154 -5 178 -33 33 -39 31 -81 -5 -118 l-29 -29
-286 0 -286 0 0 -136 0 -135 313 3 312 3 67 33 c127 62 200 178 201 317 1 125
-56 235 -157 302 -74 50 -131 63 -279 63 l-129 0 -29 29 c-17 18 -29 40 -29
56 0 16 12 38 29 56 l29 29 196 0 196 0 0 135 0 135 -207 -1 c-139 0 -221 -5
-248 -13z"/>
</g>
</svg>
